<?xml version="1.0" standalone="yes"?>
<svg xmlns="http://www.w3.org/2000/svg" width="262" height="80">
<path style="fill:#ffffff; stroke:none;" d="M0 0L0 80L262 80L262 0L0 0z"/>
<path style="fill:#c19e91; stroke:none;" d="M7 7L7 25L18 26L19 7L7 7z"/>
<path style="fill:#509d5f; stroke:none;" d="M19 7L18 26L19 26L36 11L60 8.00386L83 11C83 13.7135 84.384 13.3834 87 13L93 20L92 7L19 7z"/>
<path style="fill:#c19e91; stroke:none;" d="M46 7L47 8L46 7M49 7L50 8L49 7M68 7L69 8L68 7M71 7L72 8L71 7M92 7L93 20L98 19L98 7L92 7M45 8L46 9L45 8z"/>
<path style="fill:#28782f; stroke:none;" d="M51 8.43904C36.7556 10.6638 23.0879 18.5631 14.25 30.0394C11.5265 33.5759 6.50904 41.9276 10.0278 46.3966C11.8482 48.7086 17.3108 48.5742 20 48.8302C30.0534 49.7876 41.0475 48.0457 51 46.5725C63.0247 44.7926 74.9205 41.7681 86 36.6914C89.228 35.2123 94.9811 33.3058 96.3534 29.6713C98.2692 24.5972 92.5078 19.1241 88.9846 16.49C78.7565 8.84298 63.4359 6.49673 51 8.43904z"/>
<path style="fill:#c19e91; stroke:none;" d="M36.6667 11.3333L37.3333 11.6667L36.6667 11.3333M81.6667 11.3333L82.3333 11.6667L81.6667 11.3333M34 12L35 13L34 12z"/>
<path style="fill:#509d5f; stroke:none;" d="M39 19L39 30L38 30L38 20L37 20L34 24L35 22L31 28L30 29C25.3099 29.8393 23.3877 33.6548 22 38L23 38L23 36L24 36L24 41L32 42L35 33C33.3413 38.7843 34.8915 41.7969 41 42L41 30L45 29L45 42C57.6207 40.9993 68.9384 40.5893 81 35.8009C83.9489 34.6302 98.2267 26.0228 89 25L90 22L83 18L84 26L82 17C67.3339 12.2295 52.8417 11.1228 39 19z"/>
<path style="fill:#c19e91; stroke:none;" d="M85.6667 13.3333L86.3333 13.6667L85.6667 13.3333M29 16L32 15L29 16M55 14L56 15L55 14M57.6667 14.3333L58.3333 14.6667L57.6667 14.3333M64 14L64 27L65 27L64 14M67 14L68 15L67 14M47 16L47 17L51 16L51 27L52 27L52 15L47 16M71 15L71 16L74 16L71 15M89 15L91 17L89 15M76 16L77 17L76 16M44.6667 17.3333L45.3333 17.6667L44.6667 17.3333M78.6667 17.3333L79.3333 17.6667L78.6667 17.3333M81 18L84 26L81 18z"/>
<path style="fill:#ffffff; stroke:none;" d="M93 18L94 19L93 18z"/>
<path style="fill:#509d5f; stroke:none;" d="M94 19L97 30L98 30L98 23L95 21L98 21L98 19L94 19z"/>
<path style="fill:#c19e91; stroke:none;" d="M38 20L37 21L38 30L39 30L40 20L38 20M84 20L85 21L84 20M95 21L97 24L98 21L95 21M34 24L37 22L34 24M89.3333 23.6667L89.6667 24.3333L89.3333 23.6667M33 24L32 26L33 24M97.3333 24.6667L97.6667 25.3333L97.3333 24.6667z"/>
<path style="fill:#509d5f; stroke:none;" d="M7 25L7 28L15 28L15 29L7 29L7 31C12.1302 30.8647 15.4779 30.3755 17 25L7 25z"/>
<path style="fill:#28782f; stroke:none;" d="M66 25L67 26L66 25z"/>
<path style="fill:#c19e91; stroke:none;" d="M79 25L80 26L79 25z"/>
<path style="fill:#28782f; stroke:none;" d="M56 26L57 27L56 26z"/>
<path style="fill:#c19e91; stroke:none;" d="M91 26L90 29L91 26M109 26L109 31L110 31L114 27L109 26z"/>
<path style="fill:#bb4a4a; stroke:none;" d="M115 53L109 52L109 65L109 66C112.668 66 118.161 67.2632 119 63L129 66L129 57L130 57C130.071 63.0097 136.425 70.0665 138 61L139 61L139 66C145.601 65.785 146.644 63.0963 147 57L148 57L150 64L147 65L147 66L154 65L152 63L152 62L157 58L155 60L155 61L156 64C159.163 64.9302 162.107 67.1471 163 63L166 64L167 63C166.501 59.6042 168.993 55.8736 165 55L166 52L168 54L169 54L171 52C168.965 60.2952 166.092 65.1586 177 66L177 65L175 64C177.547 60.0752 175.906 57.0512 172 55L173 52L170 51L170 50L174 50C176.098 58.3572 184.173 73.9723 187 57L188 57L187 66L192 65L190 60L191 60L197 66L196 62L198 66L206 64L210 66L209 63L213 63L212 66L216 66C214.459 61.3693 209.974 53.5643 215 50L215 59L217 57L218 57L217 66L222 64L223 64L224 64L228 66L227 60L229 66C238.044 65.7063 240.152 57.5084 233 52L234 55L228 59L228 53C235.323 53.9896 230.312 42.9825 229 46L228 46L222 26L216 26L209 47L209 32L204 31L213 26L199.278 26.6042L192 43L191 43C189.606 27.039 183.181 26 169 26L169 27L173 30C182.176 29.8499 180.556 40.4652 179 47L175 47L168 26C163.3 26 157.119 24.9033 154 29L162 27L155 47L151 47C149.593 41.0886 148.584 33.6776 153 29L153 27C147.542 25.3866 142.516 25.389 138 29L139 26L126 26L126 27L131 30L131 46L129 46L126 39L130 33L127 34C126.378 25.9435 114.689 22.6869 110.329 30.189C105.211 38.9952 111.422 46.0392 115 53z"/>
<path style="fill:#c19e91; stroke:none;" d="M121 26L121 27C124.85 28.3518 126.36 29.9488 127 34L130 33L126 39L129 46L131 46L131 30L121 26M139 26L138 29L139 26M152 26L153 29C148.18 32.4763 149.472 41.8312 151 47L155 47L162 27L154 29L157 27L152 26M168 26L175 47L179 47C180.915 40.5202 182.234 29.3059 173 30L168 26M186 26L191 43L192 43L198 26L186 26M206 26L206 27L212 27L206 26M204 31L209 32L209 47L216 26L204 31z"/>
<path style="fill:#bb4a4a; stroke:none;" d="M214 26L215 27L214 26z"/>
<path style="fill:#c19e91; stroke:none;" d="M222 26L228 46L229 46L230 44C231.107 47.6252 232.36 51.5325 228 53L228 59L234 55L233 52C237.009 56.6633 237.927 60.5641 235 66C243.778 66 234.857 51.7142 240 53L229 43L230 39L233 39L233 42L236 45C238.598 45.59 246.733 45.2276 241.663 41.0694C238.232 38.2553 233.255 37.424 229 37L232 33L228 31L232 32L238 27L222 26z"/>
<path style="fill:#bb4a4a; stroke:none;" d="M227 26L228 27L227 26M232 32L228 31L232 33L229 37C234.781 38.2271 249.567 47.0874 236 45L233 42L230 39L229 43L240 53L238 66L242 66L241 60L242 60C243.63 64.5134 245.181 65.8398 250 66L250 65L247 65L247 64L250 64L248 57L248 56L248 55L250 37L239 33L240 33L242 30C242.747 34.4647 244.836 34.6456 249 34L250 26L249 26L249 29C242.89 25.2574 235.566 24.8668 232 32z"/>
<path style="fill:#c19e91; stroke:none;" d="M244 26L244 27L249 29C248.346 25.9461 246.993 26.0642 244 26M15 27L16 28L15 27M29 27L29 29L31 27L29 27M47 27L47 28L49 41L50 41C50 36.2553 51.4004 29.8528 47 27M58 27L57 41C60.2589 38.1523 59.5804 30.7663 58 27M62 27L63 28L62 27M7 28L7 29L15 29L7 28z"/>
<path style="fill:#ffffff; stroke:none;" d="M53 28L54 29L53 28M139 28L140 29L139 28z"/>
<path style="fill:#c19e91; stroke:none;" d="M44 29L41 30L41 42L45 42L44 29z"/>
<path style="fill:#28782f; stroke:none;" d="M47 29L48 30L47 29z"/>
<path style="fill:#c19e91; stroke:none;" d="M53 29L52 41L55 41L53 29M141 29L141 33L136 37L142 33L144 37L145 37L145 30L141 29M249 29L249 34C245.093 34.2025 243.212 33.9061 242 30L240 33L239 33L238 31L237 34L250 37L249 29M12 30L7 31L7 32C9.27916 32.1923 13.0662 33.0802 12 30M27 30L28 31L27 30M88 30L87 32L88 30z"/>
<path style="fill:#bb4a4a; stroke:none;" d="M97 30C71.1056 47.0772 37.0371 50.7961 7 47L16 63L17 63L18 63L17 61L18 61L35 67L35 68L25 66L21 68L17 64L17 68L15 68L14 59L13 59L10 69L35.6667 70.6667L76 71L98 71L98 50L90 50C93.8495 44.5785 99.8333 36.9494 97 30z"/>
<path style="fill:#c19e91; stroke:none;" d="M118 30L115 31C115.943 36.4491 121.368 37.2132 126 39L126 34L122 36L122 31L120 33L118 30M136 30L136 34L137 34L138 30L136 30z"/>
<path style="fill:#bb4a4a; stroke:none;" d="M210 31L211 32L210 31z"/>
<path style="fill:#c19e91; stroke:none;" d="M243 31L245 34L245 31L243 31z"/>
<path style="fill:#509d5f; stroke:none;" d="M7 32L9 37L7 47L9 47L12 33L7 32M12 32L13 33L12 32z"/>
<path style="fill:#c19e91; stroke:none;" d="M84 32L82 33L82 34L84 32M24 36L30 35C27.3321 33.679 25.7787 33.5491 24 36M33 33C31.7593 36.3942 30.6717 41.0725 35 42L35 33L33 33z"/>
<path style="fill:#bb4a4a; stroke:none;" d="M120 33L121 34L120 33z"/>
<path style="fill:#c19e91; stroke:none;" d="M164 33L163 40L167 40L166 33L164 33M218 33L217 40L221 40L220 33L218 33M78 35L79 36L78 35M109.333 35.6667L109.667 36.3333L109.333 35.6667M184 35L188 55C192.008 51.4937 188.754 41.8447 185 39L184 35M199 35L194 52L195 52L196 46L199 47L199 35M9 36L10 37L9 36M23 36L23 40L24 40L23 36M97 36L90 50L98 50L97 36z"/>
<path style="fill:#bb4a4a; stroke:none;" d="M129 36L130 37L129 36M174 36L175 37L174 36z"/>
<path style="fill:#c19e91; stroke:none;" d="M8 37L7 39L9 39L8 37M70.6667 37.3333L71.3333 37.6667L70.6667 37.3333M90 37C76.1155 46.7989 54.5439 49.9092 38 52L39 60L46 61L46 52L47 52L47 61L53 61L53 55L55 55L55 61L60 60L60 54L62 54L61 59C69.9088 58.1062 90.5287 47.4776 90 37z"/>
<path style="fill:#ffffff; stroke:none;" d="M185.333 37.6667L185.667 38.3333L185.333 37.6667z"/>
<path style="fill:#c19e91; stroke:none;" d="M67 38L68 39L67 38M110 41L113 41C113.87 43.0511 120.021 49.4044 121.079 43.8148C122.058 38.6411 112.331 38.9102 110 41z"/>
<path style="fill:#509d5f; stroke:none;" d="M22 39L23 40L22 39z"/>
<path style="fill:#c19e91; stroke:none;" d="M62.6667 39.3333L63.3333 39.6667L62.6667 39.3333z"/>
<path style="fill:#ffffff; stroke:none;" d="M198 39L199 40L198 39z"/>
<path style="fill:#c19e91; stroke:none;" d="M27.6667 40.3333L28.3333 40.6667L27.6667 40.3333z"/>
<path style="fill:#ffffff; stroke:none;" d="M53 40L54 41L53 40z"/>
<path style="fill:#c19e91; stroke:none;" d="M144 40L141 44L144 47L144 40M249 40L250 41L249 40M136 41L136 47L137 47L139 42L136 41z"/>
<path style="fill:#509d5f; stroke:none;" d="M42 42L43 43L42 42z"/>
<path style="fill:#bb4a4a; stroke:none;" d="M241 42L243 44L241 42M84 43L85 44L84 43z"/>
<path style="fill:#c19e91; stroke:none;" d="M161 44L161 47L162 47L163 44L161 44M167 44L168 47L169 47L169 44L167 44M215 44L216 50L222 49L222 48L216 47L217 44L215 44M220 44L223 47L220 44z"/>
<path style="fill:#bb4a4a; stroke:none;" d="M82 45L83 46L82 45z"/>
<path style="fill:#c19e91; stroke:none;" d="M127 45L126 47L128 47L127 45M185.333 45.6667L185.667 46.3333L185.333 45.6667M204 45L204 47L206 47L206 45L204 45M141 46L142 47L141 46M249 46L250 47L249 46z"/>
<path style="fill:#bb4a4a; stroke:none;" d="M68 47L68 52L69 52L68 47M78 47L78 49L80 49L80 47L78 47z"/>
<path style="fill:#c19e91; stroke:none;" d="M109 47L109 52L115 53L109 47M138 47L138 49L140 49L140 47L138 47M176.333 47.6667L176.667 48.3333L176.333 47.6667M127 48L128 49L127 48M7 49L7 71L13 71L13 70L10 69L13 68L13 59L14 59L15 68L17 68L17 64L21 68L25 66L35 68L35 67L17 61L18 63L17 63L16 63L7 49M119 50L118 54L117 54L118 50L114 55L118 63L119 63L120 55L124 55L123 64C127.743 60.9225 125.041 53.9696 125 49L119 50M162.667 49.3333L163.333 49.6667L162.667 49.3333M242 50L240 54L240 55L244 61L245 61L247 55L247 54L244 51L245 51L247 53L247 49L242 50z"/>
<path style="fill:#bb4a4a; stroke:none;" d="M55 50L56 59L57 59L55 50z"/>
<path style="fill:#c19e91; stroke:none;" d="M89 50L89 68L91 68L89 50M130 50L130 57L134 55L134 50L132 53L131 53L130 50M139 50L140 51L139 50M144 50L147 57L146 50L144 50M147 50L147 52L150 52L150 50L147 50M152 50L153 51L152 50M156 50L156 53L157 53L158 50L156 50M160 50L161 51L160 50M170 50L170 51L173 52L172 55C175.795 58.0389 176.429 60.3864 175 65L180 66L174 50L170 50M180 50L180 58L182 63L184 63L185 54L180 50M198 50L198 51L202 51L198 50M204 50L205 51L204 50M212 50L216 66L217 66L218 57L217 57L215 59L215 50L212 50M226.333 50.6667L226.667 51.3333L226.333 50.6667z"/>
<path style="fill:#bb4a4a; stroke:none;" d="M52 51L51 55L52 51M120 51L120 54L121 54L120 51z"/>
<path style="fill:#c19e91; stroke:none;" d="M34 52L33 55L28 54L28 55L38 59L35 56L34 52M36.3333 52.6667L36.6667 53.3333L36.3333 52.6667z"/>
<path style="fill:#bb4a4a; stroke:none;" d="M43 52L43 57L44 57L43 52M65 52L65 57L66 57L65 52z"/>
<path style="fill:#c19e91; stroke:none;" d="M152 52L150 53L151 59L152 59L155 53L152 52M166 52L165 55L167 63L166 64L163 63C163.796 66.7158 166.637 66 170 66L171 52L169 54L168 54L166 52M219 52L220 53L219 52M221 52L224 58L225 58L226 54L221 52z"/>
<path style="fill:#bb4a4a; stroke:none;" d="M39 53L41 59L42 59L39 53z"/>
<path style="fill:#c19e91; stroke:none;" d="M86 53C78.3733 59.5989 70.5545 63.8858 61 67L61 68L76 65L73 66L73 67C83.3884 67.6914 87.8063 64.6443 86 53z"/>
<path style="fill:#bb4a4a; stroke:none;" d="M122.667 53.3333L123.333 53.6667L122.667 53.3333z"/>
<path style="fill:#c19e91; stroke:none;" d="M135 53L139 55L135 53M159 53L156 57L160 59L161 54L159 53M197 53L197 55L199 55L197 53M201 54C204.42 57.1986 206.364 59.1086 206 64L207 64L209 56L206 57L206 56L212 55L201 54z"/>
<path style="fill:#bb4a4a; stroke:none;" d="M30 54L31 55L30 54M49 54L50 55L49 54z"/>
<path style="fill:#c19e91; stroke:none;" d="M126.667 54.3333L127.333 54.6667L126.667 54.3333M178 54L179 55L178 54M186 54L187 55L186 54M191 54L194 60L194 54L191 54M219 54L220 55L219 54M248 55L248 57L250 57L250 55L248 55z"/>
<path style="fill:#bb4a4a; stroke:none;" d="M33 56L34 57L33 56z"/>
<path style="fill:#c19e91; stroke:none;" d="M94 56L93 68L97 69L96 56L94 56M110 57L111 58L110 57M114 57L113 58L116 60L114 57M129 57L128 65L132 66L129 57M133 57L134 63L134 59L136 61L140 58L139 57L138 59L133 57M142 57L145 59L142 57M147 57L145 66L150 64L147 57M163 60L166 58C163.604 57.4254 163.513 57.5249 163 60M170 58L172 60L172 61L170 63L174 63L173 57L170 58M187 57L184 66C188.1 64.5584 188.574 60.7876 187 57M197 57L198 58L197 57M201 57L201 64C204.209 61.6875 204.209 59.3125 201 57M232 57L232 64L234 64L234 57L232 57z"/>
<path style="fill:#bb4a4a; stroke:none;" d="M11 58L12 59L11 58z"/>
<path style="fill:#c19e91; stroke:none;" d="M155 58L152 62L152 63L153 66L160 66L160 65L156 64L155 61L155 60L157 58L155 58M221 58L224 60L221 58M247.333 58.6667L247.667 59.3333L247.333 58.6667M210 59L210 61L212 61L212 59L210 59z"/>
<path style="fill:#bb4a4a; stroke:none;" d="M79 60L81 66L79 60M83 60L84 61L83 60z"/>
<path style="fill:#c19e91; stroke:none;" d="M190 60L191 66L194 65L190 60z"/>
<path style="fill:#ffffff; stroke:none;" d="M193 60L194 61L193 60z"/>
<path style="fill:#c19e91; stroke:none;" d="M227 60L228 66L229 66L227 60M241 60L244 66L241 60M138 61L136 65L136 66C139.012 65.3545 139.498 63.6128 138 61M142 61L142 64L145 63L145 62L142 61M113 62L116 65L113 62z"/>
<path style="fill:#ffffff; stroke:none;" d="M114 62L115 63L114 62z"/>
<path style="fill:#c19e91; stroke:none;" d="M135.333 62.6667L135.667 63.3333L135.333 62.6667M159 62L160 63L159 62M180 62L181 63L180 62M196 62L197 66L198 66L196 62M221 64L225 63L221 64z"/>
<path style="fill:#bb4a4a; stroke:none;" d="M233 62L234 63L233 62z"/>
<path style="fill:#c19e91; stroke:none;" d="M247 62L248 63L247 62M109 63L109 65L111 65L111 63L109 63M119 63L122 66L119 63M209 63L210 66L212 66L213 63L209 63M203 66L206 64L203 66M222 64L222 66L224 66L224 64L222 64M247 64L247 65L250 65L247 64M116 65L117 66L116 65M127 65L128 66L127 65M174 65L175 66L174 65z"/>
<path style="fill:#ffffff; stroke:none;" d="M69 66L70 67L69 66z"/>
<path style="fill:#c19e91; stroke:none;" d="M95 69L92 70L92 71L95 69M15 70L15 71L19 71L15 70M25.6667 70.3333L26.3333 70.6667L25.6667 70.3333M28 70L29 71L28 70M35 70L36 71L35 70M78 70L78 71L81 71L78 70M86 70L86 71L91 71L86 70z"/>
</svg>
